<?xml version="1.0" encoding="UTF-8"?>
<svg version="1.1" xmlns="http://www.w3.org/2000/svg" width="1280" height="320">
<path d="M0 0 C422.4 0 844.8 0 1280 0 C1280 105.6 1280 211.2 1280 320 C857.6 320 435.2 320 0 320 C0 214.4 0 108.8 0 0 Z " fill="#FEFEFE" transform="translate(0,0)"/>
<path d="M0 0 C31.02 0 62.04 0 94 0 C94 48.51 94 97.02 94 147 C86.08 147 78.16 147 70 147 C70 138.75 70 130.5 70 122 C64.06 122 58.12 122 52 122 C52 129.92 52 137.84 52 146 C34.84 146 17.68 146 0 146 C0 138.08 0 130.16 0 122 C-7.92 122 -15.84 122 -24 122 C-24 105.5 -24 89 -24 72 C-16.08 72 -8.16 72 0 72 C0 64.08 0 56.16 0 48 C23.1 48 46.2 48 70 48 C70 40.08 70 32.16 70 24 C46.9 24 23.8 24 0 24 C0 16.08 0 8.16 0 0 Z " fill="#030303" transform="translate(706,101)"/>
<path d="M0 0 C8.25 0 16.5 0 25 0 C25 48.18 25 96.36 25 146 C32.92 146 40.84 146 49 146 C49 138.08 49 130.16 49 122 C57.25 122 65.5 122 74 122 C74 81.74 74 41.48 74 0 C82.25 0 90.5 0 99 0 C99 40.26 99 80.52 99 122 C106.92 122 114.84 122 123 122 C123 129.92 123 137.84 123 146 C131.25 146 139.5 146 148 146 C148 97.82 148 49.64 148 0 C155.92 0 163.84 0 172 0 C172 48.51 172 97.02 172 147 C164.08 147 156.16 147 148 147 C148 154.92 148 162.84 148 171 C139.75 171 131.5 171 123 171 C123 163.08 123 155.16 123 147 C114.75 147 106.5 147 98 147 C98 139.08 98 131.16 98 123 C90.08 123 82.16 123 74 123 C74 130.92 74 138.84 74 147 C66.08 147 58.16 147 50 147 C50 154.92 50 162.84 50 171 C41.42 171 32.84 171 24 171 C24 163.08 24 155.16 24 147 C16.08 147 8.16 147 0 147 C0 98.49 0 49.98 0 0 Z " fill="#040404" transform="translate(72,76)"/>
<path d="M0 0 C7.92 0 15.84 0 24 0 C24 48.18 24 96.36 24 146 C32.25 146 40.5 146 49 146 C49 138.08 49 130.16 49 122 C57.25 122 65.5 122 74 122 C74 81.74 74 41.48 74 0 C81.92 0 89.84 0 98 0 C98 40.26 98 80.52 98 122 C106.25 122 114.5 122 123 122 C123 129.92 123 137.84 123 146 C131.25 146 139.5 146 148 146 C148 97.82 148 49.64 148 0 C156.25 0 164.5 0 173 0 C173 48.51 173 97.02 173 147 C164.75 147 156.5 147 148 147 C148 154.92 148 162.84 148 171 C139.75 171 131.5 171 123 171 C123 163.08 123 155.16 123 147 C114.75 147 106.5 147 98 147 C98 139.08 98 131.16 98 123 C90.08 123 82.16 123 74 123 C74 130.92 74 138.84 74 147 C65.75 147 57.5 147 49 147 C49 154.92 49 162.84 49 171 C40.75 171 32.5 171 24 171 C24 163.08 24 155.16 24 147 C16.08 147 8.16 147 0 147 C0 98.49 0 49.98 0 0 Z " fill="#676767" transform="translate(484,76)"/>
<path d="M0 0 C24.09 0 48.18 0 73 0 C73 7.92 73 15.84 73 24 C56.83 24 40.66 24 24 24 C24 64.59 24 105.18 24 147 C16.08 147 8.16 147 0 147 C0 98.49 0 49.98 0 0 Z " fill="#030303" transform="translate(826,101)"/>
<path d="M0 0 C7.92 0 15.84 0 24 0 C24 48.18 24 96.36 24 146 C16.08 146 8.16 146 0 146 C0 97.82 0 49.64 0 0 Z " fill="#020202" transform="translate(72,76)"/>
<path d="M0 0 C7.92 0 15.84 0 24 0 C23.67 48.18 23.34 96.36 23 146 C15.41 146 7.82 146 0 146 C0 97.82 0 49.64 0 0 Z " fill="#000000" transform="translate(484,76)"/>
<path d="M0 0 C7.59 0 15.18 0 23 0 C23 47.85 23 95.7 23 145 C15.41 145 7.82 145 0 145 C0 97.15 0 49.3 0 0 Z " fill="#000000" transform="translate(633,77)"/>
<path d="M0 0 C8.25 0 16.5 0 25 0 C25 43.56 25 87.12 25 132 C16.75 132 8.5 132 0 132 C0 88.44 0 44.88 0 0 Z " fill="#070707" transform="translate(949,116)"/>
<path d="M0 0 C7.92 0 15.84 0 24 0 C24 40.26 24 80.52 24 122 C16.08 122 8.16 122 0 122 C0 81.74 0 41.48 0 0 Z " fill="#020202" transform="translate(558,76)"/>
<path d="M0 0 C7.92 0 15.84 0 24 0 C24 40.26 24 80.52 24 122 C16.08 122 8.16 122 0 122 C0 81.74 0 41.48 0 0 Z " fill="#020202" transform="translate(146,76)"/>
<path d="M0 0 C22.77 0 45.54 0 69 0 C69 7.92 69 15.84 69 24 C63.06 24 57.12 24 51 24 C51 31.92 51 39.84 51 48 C34.17 48 17.34 48 0 48 C0 32.16 0 16.32 0 0 Z " fill="#FEFEFE" transform="translate(707,174)"/>
<path d="M0 0 C0.33 0 0.66 0 1 0 C1 48.18 1 96.36 1 146 C8.92 146 16.84 146 25 146 C25 138.08 25 130.16 25 122 C41.17 122 57.34 122 74 122 C74 81.74 74 41.48 74 0 C74.33 0 74.66 0 75 0 C75 40.26 75 80.52 75 122 C82.92 122 90.84 122 99 122 C99 129.92 99 137.84 99 146 C107.25 146 115.5 146 124 146 C124 154.25 124 162.5 124 171 C115.75 171 107.5 171 99 171 C99 163.08 99 155.16 99 147 C90.75 147 82.5 147 74 147 C74 139.08 74 131.16 74 123 C66.08 123 58.16 123 50 123 C50 130.92 50 138.84 50 147 C42.08 147 34.16 147 26 147 C26 154.92 26 162.84 26 171 C17.42 171 8.84 171 0 171 C0 163.08 0 155.16 0 147 C-7.92 147 -15.84 147 -24 147 C-24 146.67 -24 146.34 -24 146 C-16.08 146 -8.16 146 0 146 C0 97.82 0 49.64 0 0 Z " fill="#888888" transform="translate(96,76)"/>
<path d="M0 0 C28.38 0 56.76 0 86 0 C86 7.92 86 15.84 86 24 C57.62 24 29.24 24 0 24 C0 16.08 0 8.16 0 0 Z " fill="#040404" transform="translate(1024,224)"/>
<path d="M0 0 C28.38 0 56.76 0 86 0 C86 7.92 86 15.84 86 24 C57.62 24 29.24 24 0 24 C0 16.08 0 8.16 0 0 Z " fill="#060606" transform="translate(1024,102)"/>
<path d="M0 0 C28.05 0 56.1 0 85 0 C85 7.59 85 15.18 85 23 C56.95 23 28.9 23 0 23 C0 15.41 0 7.82 0 0 Z " fill="#000000" transform="translate(1025,153)"/>
<path d="M0 0 C25.74 0 51.48 0 78 0 C78 7.92 78 15.84 78 24 C52.26 24 26.52 24 0 24 C0 16.08 0 8.16 0 0 Z " fill="#030303" transform="translate(294,76)"/>
<path d="M0 0 C25.41 0 50.82 0 77 0 C77 7.59 77 15.18 77 23 C51.59 23 26.18 23 0 23 C0 15.41 0 7.82 0 0 Z " fill="#000000" transform="translate(294,223)"/>
<path d="M0 0 C25.41 0 50.82 0 77 0 C77 7.59 77 15.18 77 23 C51.59 23 26.18 23 0 23 C0 15.41 0 7.82 0 0 Z " fill="#000000" transform="translate(294,150)"/>
<path d="M0 0 C7.92 0 15.84 0 24 0 C24 16.17 24 32.34 24 49 C16.08 49 8.16 49 0 49 C0 32.83 0 16.66 0 0 Z " fill="#040404" transform="translate(270,100)"/>
<path d="M0 0 C7.92 0 15.84 0 24 0 C24 15.84 24 31.68 24 48 C16.08 48 8.16 48 0 48 C0 32.16 0 16.32 0 0 Z " fill="#060606" transform="translate(1110,176)"/>
<path d="M0 0 C7.92 0 15.84 0 24 0 C24 15.84 24 31.68 24 48 C16.08 48 8.16 48 0 48 C0 32.16 0 16.32 0 0 Z " fill="#000000" transform="translate(372,174)"/>
<path d="M0 0 C16.5 0 33 0 50 0 C50 7.59 50 15.18 50 23 C33.5 23 17 23 0 23 C0 15.41 0 7.82 0 0 Z " fill="#000000" transform="translate(707,223)"/>
<path d="M0 0 C7.59 0 15.18 0 23 0 C23 15.84 23 31.68 23 48 C15.41 48 7.82 48 0 48 C0 32.16 0 16.32 0 0 Z " fill="#000000" transform="translate(683,174)"/>
<path d="M0 0 C7.92 0 15.84 0 24 0 C24 8.58 24 17.16 24 26 C16.08 26 8.16 26 0 26 C0 17.42 0 8.84 0 0 Z " fill="#020202" transform="translate(1000,126)"/>
<path d="M0 0 C8.25 0 16.5 0 25 0 C25 7.92 25 15.84 25 24 C16.75 24 8.5 24 0 24 C0 16.08 0 8.16 0 0 Z " fill="#020202" transform="translate(195,223)"/>
<path d="M0 0 C8.25 0 16.5 0 25 0 C25 7.92 25 15.84 25 24 C16.75 24 8.5 24 0 24 C0 16.08 0 8.16 0 0 Z " fill="#040404" transform="translate(508,223)"/>
<path d="M0 0 C8.25 0 16.5 0 25 0 C25 7.92 25 15.84 25 24 C16.75 24 8.5 24 0 24 C0 16.08 0 8.16 0 0 Z " fill="#030303" transform="translate(96,223)"/>
<path d="M0 0 C8.25 0 16.5 0 25 0 C25 7.92 25 15.84 25 24 C16.75 24 8.5 24 0 24 C0 16.08 0 8.16 0 0 Z " fill="#0A0A0A" transform="translate(949,76)"/>
<path d="M0 0 C7.92 0 15.84 0 24 0 C24 7.92 24 15.84 24 24 C16.08 24 8.16 24 0 24 C0 16.08 0 8.16 0 0 Z " fill="#020202" transform="translate(608,223)"/>
<path d="M0 0 C7.92 0 15.84 0 24 0 C24 7.92 24 15.84 24 24 C16.08 24 8.16 24 0 24 C0 16.08 0 8.16 0 0 Z " fill="#060606" transform="translate(1000,200)"/>
<path d="M0 0 C7.92 0 15.84 0 24 0 C24 7.92 24 15.84 24 24 C16.08 24 8.16 24 0 24 C0 16.08 0 8.16 0 0 Z " fill="#070707" transform="translate(270,198)"/>
<path d="M0 0 C7.92 0 15.84 0 24 0 C24 7.92 24 15.84 24 24 C16.08 24 8.16 24 0 24 C0 16.08 0 8.16 0 0 Z " fill="#010101" transform="translate(899,125)"/>
<path d="M0 0 C7.92 0 15.84 0 24 0 C24 7.92 24 15.84 24 24 C16.08 24 8.16 24 0 24 C0 16.08 0 8.16 0 0 Z " fill="#000000" transform="translate(372,101)"/>
<path d="M0 0 C7.92 0 15.84 0 24 0 C24 7.59 24 15.18 24 23 C16.08 23 8.16 23 0 23 C0 15.41 0 7.82 0 0 Z " fill="#010101" transform="translate(583,199)"/>
<path d="M0 0 C7.92 0 15.84 0 24 0 C24 7.59 24 15.18 24 23 C16.08 23 8.16 23 0 23 C0 15.41 0 7.82 0 0 Z " fill="#000000" transform="translate(171,199)"/>
<path d="M0 0 C7.59 0 15.18 0 23 0 C23 7.59 23 15.18 23 23 C15.41 23 7.82 23 0 23 C0 15.41 0 7.82 0 0 Z " fill="#000000" transform="translate(534,199)"/>
<path d="M0 0 C7.59 0 15.18 0 23 0 C23 7.59 23 15.18 23 23 C15.41 23 7.82 23 0 23 C0 15.41 0 7.82 0 0 Z " fill="#000000" transform="translate(122,199)"/>
<path d="M0 0 C25.74 0 51.48 0 78 0 C78 7.92 78 15.84 78 24 C86.25 24 94.5 24 103 24 C103 40.5 103 57 103 74 C94.75 74 86.5 74 78 74 C78 81.92 78 89.84 78 98 C52.26 98 26.52 98 0 98 C0 97.67 0 97.34 0 97 C25.41 97 50.82 97 77 97 C77 89.41 77 81.82 77 74 C43.67 74 10.34 74 -24 74 C-24 73.67 -24 73.34 -24 73 C17.58 73 59.16 73 102 73 C102 57.16 102 41.32 102 25 C97.05193359 25.26103516 97.05193359 25.26103516 92.00390625 25.52734375 C74.53492889 26.30386517 57.06572788 25.89177752 39.58911133 25.60510254 C35.10961181 25.53313194 30.62999857 25.46909823 26.15039062 25.40429688 C17.43346752 25.27707919 8.71670444 25.14140729 0 25 C0 24.67 0 24.34 0 24 C25.41 24 50.82 24 77 24 C77 16.41 77 8.82 77 1 C51.59 1 26.18 1 0 1 C0 0.67 0 0.34 0 0 Z " fill="#848484" transform="translate(294,149)"/>
<path d="M0 0 C31.02 0 62.04 0 94 0 C94 0.33 94 0.66 94 1 C71.23 1 48.46 1 25 1 C25 16.84 25 32.68 25 49 C48.1 49 71.2 49 95 49 C95 57.25 95 65.5 95 74 C102.59 74 110.18 74 118 74 C118 74.33 118 74.66 118 75 C110.08 75 102.16 75 94 75 C94 66.75 94 58.5 94 50 C88.06 50 82.12 50 76 50 C76 57.92 76 65.84 76 74 C58.84 74 41.68 74 24 74 C24 66.08 24 58.16 24 50 C16.08 50 8.16 50 0 50 C0 33.5 0 17 0 0 Z M1 1 C1 16.84 1 32.68 1 49 C8.59 49 16.18 49 24 49 C24 33.16 24 17.32 24 1 C16.41 1 8.82 1 1 1 Z M25 50 C25 57.59 25 65.18 25 73 C41.5 73 58 73 75 73 C75 65.41 75 57.82 75 50 C58.5 50 42 50 25 50 Z " fill="#767676" transform="translate(682,173)"/>
<path d="M0 0 C0.33 0 0.66 0 1 0 C1 40.26 1 80.52 1 122 C8.92 122 16.84 122 25 122 C25 122.33 25 122.66 25 123 C17.08 123 9.16 123 1 123 C1 130.59 1 138.18 1 146 C17.17 146 33.34 146 50 146 C50 146.33 50 146.66 50 147 C33.5 147 17 147 0 147 C0 139.08 0 131.16 0 123 C-7.92 123 -15.84 123 -24 123 C-24 122.67 -24 122.34 -24 122 C-16.08 122 -8.16 122 0 122 C0 81.74 0 41.48 0 0 Z " fill="#A2A2A2" transform="translate(170,76)"/>
</svg>
