<?xml version="1.0" encoding="UTF-8"?>
<svg version="1.1" xmlns="http://www.w3.org/2000/svg" width="1280" height="1280">
<path d="M0 0 C422.4 0 844.8 0 1280 0 C1280 422.4 1280 844.8 1280 1280 C857.6 1280 435.2 1280 0 1280 C0 857.6 0 435.2 0 0 Z " fill="#010101" transform="translate(0,0)"/>
<path d="M0 0 C84.48 0 168.96 0 256 0 C256 21.12 256 42.24 256 64 C277.12 64 298.24 64 320 64 C320 85.12 320 106.24 320 128 C277.76 128 235.52 128 192 128 C192 106.88 192 85.76 192 64 C149.76 64 107.52 64 64 64 C64 106.24 64 148.48 64 192 C106.24 192 148.48 192 192 192 C192 213.12 192 234.24 192 256 C213.12 256 234.24 256 256 256 C256 277.12 256 298.24 256 320 C277.12 320 298.24 320 320 320 C320 362.24 320 404.48 320 448 C298.88 448 277.76 448 256 448 C256 469.12 256 490.24 256 512 C171.52 512 87.04 512 0 512 C0 490.88 0 469.76 0 448 C-21.12 448 -42.24 448 -64 448 C-64 426.88 -64 405.76 -64 384 C-21.76 384 20.48 384 64 384 C64 405.12 64 426.24 64 448 C106.24 448 148.48 448 192 448 C192 405.76 192 363.52 192 320 C149.76 320 107.52 320 64 320 C64 298.88 64 277.76 64 256 C42.88 256 21.76 256 0 256 C0 234.88 0 213.76 0 192 C-21.12 192 -42.24 192 -64 192 C-64 149.76 -64 107.52 -64 64 C-42.88 64 -21.76 64 0 64 C0 42.88 0 21.76 0 0 Z " fill="#FDFDFD" transform="translate(832,384)"/>
<path d="M0 0 C42.24 0 84.48 0 128 0 C128 126.72 128 253.44 128 384 C106.88 384 85.76 384 64 384 C64 426.24 64 468.48 64 512 C21.76 512 -20.48 512 -64 512 C-64 469.76 -64 427.52 -64 384 C-42.88 384 -21.76 384 0 384 C0 257.28 0 130.56 0 0 Z " fill="#FDFDFD" transform="translate(576,384)"/>
<path d="M0 0 C42.24 0 84.48 0 128 0 C128 126.72 128 253.44 128 384 C149.12 384 170.24 384 192 384 C192 426.24 192 468.48 192 512 C149.76 512 107.52 512 64 512 C64 469.76 64 427.52 64 384 C42.88 384 21.76 384 0 384 C0 257.28 0 130.56 0 0 Z " fill="#FEFEFE" transform="translate(128,384)"/>
<path d="M0 0 C21.12 0 42.24 0 64 0 C64 63.36 64 126.72 64 192 C42.88 192 21.76 192 0 192 C0 128.64 0 65.28 0 0 Z " fill="#FDFDFD" transform="translate(448,576)"/>
<path d="M0 0 C21.12 0 42.24 0 64 0 C64 63.36 64 126.72 64 192 C42.88 192 21.76 192 0 192 C0 128.64 0 65.28 0 0 Z " fill="#FDFDFD" transform="translate(320,576)"/>
<path d="M0 0 C21.12 0 42.24 0 64 0 C64 42.24 64 84.48 64 128 C42.88 128 21.76 128 0 128 C0 85.76 0 43.52 0 0 Z " fill="#FCFCFC" transform="translate(384,448)"/>
</svg>
