<?xml version="1.0" encoding="UTF-8"?>
<svg version="1.1" xmlns="http://www.w3.org/2000/svg" width="1280" height="612">
<path d="M0 0 C422.4 0 844.8 0 1280 0 C1280 201.96 1280 403.92 1280 612 C857.6 612 435.2 612 0 612 C0 410.04 0 208.08 0 0 Z " fill="#000000" transform="translate(0,0)"/>
<path d="M0 0 C211.2 0 422.4 0 640 0 C640 201.96 640 403.92 640 612 C428.8 612 217.6 612 0 612 C0 410.04 0 208.08 0 0 Z " fill="#FEFEFE" transform="translate(0,0)"/>
<path d="M0 0 C53.13 0 106.26 0 161 0 C161 201.96 161 403.92 161 612 C107.87 612 54.74 612 0 612 C0 563.82 0 515.64 0 466 C-105.27 466 -210.54 466 -319 466 C-319 434.98 -319 403.96 -319 372 C-297.88 372 -276.76 372 -255 372 C-255 381.57 -255 391.14 -255 401 C-192.3 401 -129.6 401 -65 401 C-65 379.88 -65 358.76 -65 337 C-127.7 337 -190.4 337 -255 337 C-255 326.77 -255 316.54 -255 306 C-276.45 306 -297.9 306 -320 306 C-320 253.2 -320 200.4 -320 146 C-214.4 146 -108.8 146 0 146 C0 97.82 0 49.64 0 0 Z " fill="#FEFEFE" transform="translate(1119,0)"/>
<path d="M0 0 C52.8 0 105.6 0 160 0 C160 105.6 160 211.2 160 320 C107.2 320 54.4 320 0 320 C0 267.53 0 215.06 0 161 C-21.78 161 -43.56 161 -66 161 C-66 150.44 -66 139.88 -66 129 C-128.7 129 -191.4 129 -256 129 C-256 107.55 -256 86.1 -256 64 C-193.3 64 -130.6 64 -66 64 C-66 74.23 -66 84.46 -66 95 C-44.22 95 -22.44 95 0 95 C0 63.65 0 32.3 0 0 Z " fill="#000000" transform="translate(1120,146)"/>
<path d="M0 0 C105.27 0 210.54 0 319 0 C319 48.18 319 96.36 319 146 C298.21 146 277.42 146 256 146 C256 209.03 256 272.06 256 337 C245.44 337 234.88 337 224 337 C224 295.09 224 253.18 224 210 C213.44 210 202.88 210 192 210 C192 188.88 192 167.76 192 146 C170.88 146 149.76 146 128 146 C128 167.45 128 188.9 128 211 C117.77 211 107.54 211 97 211 C97 252.91 97 294.82 97 338 C86.44 338 75.88 338 65 338 C65 274.64 65 211.28 65 146 C43.55 146 22.1 146 0 146 C0 97.82 0 49.64 0 0 Z " fill="#010101" transform="translate(160,0)"/>
<path d="M0 0 C52.47 0 104.94 0 159 0 C159 105.27 159 210.54 159 319 C107.02819634 329.39436073 53.00104821 320 0 320 C0 214.4 0 108.8 0 0 Z " fill="#000000" transform="translate(0,146)"/>
<path d="M0 0 C21.12 0 42.24 0 64 0 C64 21.45 64 42.9 64 65 C105.91 65 147.82 65 191 65 C191 113.18 191 161.36 191 211 C85.73 211 -19.54 211 -128 211 C-128 162.82 -128 114.64 -128 65 C-85.76 65 -43.52 65 0 65 C0 43.55 0 22.1 0 0 Z " fill="#000000" transform="translate(288,401)"/>
</svg>
